<?xml version="1.0" encoding="UTF-8" standalone="no"?>
<!-- Generator: Adobe Illustrator 18.0.0, SVG Export Plug-In . SVG Version: 6.00 Build 0)  -->

<svg
   version="1.1"
   id="Layer_1"
   x="0px"
   y="0px"
   viewBox="0 0 64 64"
   enable-background="new 0 0 64 64"
   xml:space="preserve"
   sodipodi:docname="binocular-logo.svg"
   inkscape:version="1.1.1 (c3084ef, 2021-09-22)"
   xmlns:inkscape="http://www.inkscape.org/namespaces/inkscape"
   xmlns:sodipodi="http://sodipodi.sourceforge.net/DTD/sodipodi-0.dtd"
   xmlns="http://www.w3.org/2000/svg"
   xmlns:svg="http://www.w3.org/2000/svg"><defs
   id="defs2225"><filter
     inkscape:collect="always"
     style="color-interpolation-filters:sRGB"
     id="filter15006"
     x="-0.0097269461"
     y="-0.0097269461"
     width="1.0194539"
     height="1.0194539"><feGaussianBlur
       inkscape:collect="always"
       stdDeviation="0.25938524"
       id="feGaussianBlur15008" /></filter></defs><sodipodi:namedview
   id="namedview2223"
   pagecolor="#ffffff"
   bordercolor="#666666"
   borderopacity="1.0"
   inkscape:pageshadow="2"
   inkscape:pageopacity="0.0"
   inkscape:pagecheckerboard="0"
   showgrid="false"
   inkscape:zoom="3.844916"
   inkscape:cx="11.053557"
   inkscape:cy="52.536908"
   inkscape:window-width="1296"
   inkscape:window-height="788"
   inkscape:window-x="0"
   inkscape:window-y="25"
   inkscape:window-maximized="0"
   inkscape:current-layer="g2220" />
<g
   id="g2220">
	<g
   id="g2146"
   transform="matrix(0.97698173,0,0,0.97698173,0.86662671,0.86662669)"
   style="mix-blend-mode:normal;filter:url(#filter15006)">
		<g
   id="g2144"
   style="fill:#2cb1bc;fill-opacity:0.8">
			<path
   fill="#A998F4"
   d="M 32,0 C 49.7,0 64,14.3 64,32 64,49.7 49.7,64 32,64 14.3,64 0,49.7 0,32 0,14.3 14.3,0 32,0 Z"
   id="path2142"
   style="fill:#2cb1bc;fill-opacity:0.8" />
		</g>
	</g>
	<g
   id="g2152"
   transform="matrix(0.77783937,0,0,0.77783937,7.1380303,-0.75180006)">
		<g
   id="g2150">
			<path
   fill="#363451"
   d="M 46.5,18.3 47,21 v 0 l -11,4.6 -0.2,-7.3 c 0,-2.6 2.7,-5.3 5.3,-5.3 2.6,0 4.9,2 5.4,5.3 z"
   id="path2148" />
		</g>
	</g>
	<g
   id="g2158"
   transform="matrix(0.77783937,0,0,0.77783937,7.1380303,-0.75180006)">
		<g
   id="g2156">
			<path
   fill="#555172"
   d="m 50.4,26.3 2.5,14.2 c 0,0 -17.9,1.6 -17.9,1.5 0,-0.2 0,-15 0,-15 0,-1.3 0.5,-3.2 1.3,-4.2 1.5,-2 4.1,-3.4 6.6,-3.4 1.7,0 3.4,0.5 4.7,1.5 1.4,1.1 2.4,2.9 2.8,5.4 z"
   id="path2154" />
		</g>
	</g>
	<g
   id="g2164"
   transform="matrix(0.77783937,0,0,0.77783937,7.1380303,-0.75180006)">
		<g
   id="g2162">
			<circle
   fill="#363451"
   cx="44"
   cy="42"
   r="9"
   id="circle2160" />
		</g>
	</g>
	<g
   id="g2170"
   transform="matrix(0.77783937,0,0,0.77783937,7.1380303,-0.75180006)">
		<g
   id="g2168">
			<path
   fill="#6edcf9"
   d="m 44,35 c 3.9,0 7,3.1 7,7 0,3.9 -3.1,7 -7,7 -3.9,0 -7,-3.1 -7,-7 0,-0.4 0,-0.9 0.1,-1.3 0.5,-2.6 2.4,-4.7 4.8,-5.4 C 42.6,35.1 43.3,35 44,35 Z"
   id="path2166" />
		</g>
	</g>
	<g
   id="g2176"
   transform="matrix(0.77783937,0,0,0.77783937,7.1380303,-0.75180006)">
		<g
   id="g2174">
			<path
   fill="#ffffff"
   d="m 45.5,37.7 c 0,-0.5 -0.4,-1 -1,-1 -0.6,0 -1.2,0.1 -1.7,0.2 -2,0.6 -3.5,2.2 -3.9,4.3 -0.1,0.4 -0.1,0.7 -0.1,1.1 0,0.5 0.4,1 1,1 0.5,0 1,-0.4 1,-1 0,-0.3 0,-0.5 0.1,-0.7 0.3,-1.3 1.2,-2.4 2.5,-2.8 0.3,-0.1 0.7,-0.2 1.1,-0.2 0.5,0 1,-0.4 1,-0.9 z"
   id="path2172" />
		</g>
	</g>
	<g
   id="g2182"
   transform="matrix(0.77783937,0,0,0.77783937,7.1380303,-0.75180006)">
		<g
   id="g2180">
			<path
   fill="#676487"
   d="m 32,44.1 v 0 c -1.7,0 -3,-1.3 -3,-3 V 25.3 c 0,-1.6 1.3,-3 3,-3 v 0 c 1.6,0 3,1.4 3,3 v 15.8 c 0,1.7 -1.3,3 -3,3 z"
   id="path2178" />
		</g>
	</g>
	<g
   id="g2188"
   transform="matrix(0.77783937,0,0,0.77783937,7.1380303,-0.75180006)">
		<g
   id="g2186">
			<path
   fill="#363451"
   d="m 35,41 c 0,0.1 0,0.2 0,0.3 -0.2,1.5 -1.4,2.7 -3,2.7 -1.6,0 -2.8,-1.2 -3,-2.7 0,-0.1 0,-0.2 0,-0.3 0,-0.2 0,-0.4 0.1,-0.6 C 29.4,39 30.6,38 32,38 c 1.4,0 2.7,1 2.9,2.4 0.1,0.2 0.1,0.4 0.1,0.6 z"
   id="path2184" />
		</g>
	</g>
	<g
   id="g2194"
   transform="matrix(0.77783937,0,0,0.77783937,7.1380303,-0.75180006)">
		<g
   id="g2192">
			<path
   fill="#363451"
   d="M 17.5,18.3 17,21 v 0 l 11,4.6 0.2,-7.3 c 0,-2.6 -2.7,-5.3 -5.4,-5.3 -2.5,0 -4.8,2 -5.3,5.3 z"
   id="path2190" />
		</g>
	</g>
	<g
   id="g2200"
   transform="matrix(0.77783937,0,0,0.77783937,7.1380303,-0.75180006)">
		<g
   id="g2198">
			<path
   fill="#555172"
   d="m 13.6,26.3 -2.5,14.2 c 0,0 17.9,1.6 17.9,1.5 0,-0.2 0,-15 0,-15 0,-1.3 -0.5,-3.2 -1.3,-4.2 -1.5,-2 -4,-3.4 -6.5,-3.4 -1.7,0 -3.4,0.5 -4.7,1.5 C 15,22 14,23.8 13.6,26.3 Z"
   id="path2196" />
		</g>
	</g>
	<g
   id="g2206"
   transform="matrix(0.77783937,0,0,0.77783937,7.1380303,-0.75180006)">
		<g
   id="g2204">
			<circle
   fill="#363451"
   cx="20"
   cy="42"
   r="9"
   id="circle2202" />
		</g>
	</g>
	<g
   id="g2212"
   transform="matrix(0.77783937,0,0,0.77783937,7.1380303,-0.75180006)">
		<g
   id="g2210">
			<path
   fill="#6edcf9"
   d="m 22.1,35.3 c 2.5,0.8 4.4,2.9 4.8,5.4 0.1,0.4 0.1,0.9 0.1,1.3 0,3.9 -3.1,7 -7,7 -3.9,0 -7,-3.1 -7,-7 0,-3.9 3.1,-7 7,-7 0.7,0 1.4,0.1 2.1,0.3 z"
   id="path2208" />
		</g>
	</g>
	<g
   id="g2218"
   transform="matrix(0.77783937,0,0,0.77783937,7.1380303,-0.75180006)">
		<g
   id="g2216">
			<path
   fill="#ffffff"
   d="m 21.7,38 c 0,-0.5 -0.4,-1 -1,-1 -0.6,0 -1.2,0.1 -1.7,0.2 -2,0.6 -3.5,2.2 -3.9,4.3 -0.1,0.4 -0.1,0.8 -0.1,1.1 0,0.5 0.4,1 1,1 0.5,0 1,-0.4 1,-1 0,-0.3 0,-0.5 0.1,-0.7 0.3,-1.3 1.2,-2.4 2.5,-2.8 0.3,-0.1 0.7,-0.2 1.1,-0.2 0.5,0 1,-0.4 1,-0.9 z"
   id="path2214" />
		</g>
	</g>
<text
   xml:space="preserve"
   style="font-size:16.5939px;line-height:1.25;font-family:Helvetica;-inkscape-font-specification:Helvetica;letter-spacing:1.55568px;word-spacing:0px;fill:#102a43;fill-opacity:1;stroke-width:0.777839"
   x="11.791007"
   y="53.06089"
   id="text3489"><tspan
     sodipodi:role="line"
     id="tspan3487"
     x="11.791007"
     y="53.06089"
     dx="0 0 0.046670362"
     style="stroke-width:0.777839">TSW</tspan></text></g>
</svg>
