<?xml version="1.0" encoding="utf-8"?>
<!-- Generator: Adobe Illustrator 18.0.0, SVG Export Plug-In . SVG Version: 6.00 Build 0)  -->
<!DOCTYPE svg PUBLIC "-//W3C//DTD SVG 1.1//EN" "http://www.w3.org/Graphics/SVG/1.1/DTD/svg11.dtd">
<svg version="1.1" id="Layer_1" xmlns="http://www.w3.org/2000/svg" xmlns:xlink="http://www.w3.org/1999/xlink" x="0px" y="0px"
	 viewBox="0 0 64 64" enable-background="new 0 0 64 64" xml:space="preserve">
<path d="M63.9,45.6L63.9,45.6l-3-22.2c-0.7-5.1-3.2-8.3-6.2-10l-0.3-1.8C53.7,6.3,50,3,44.8,3C39.6,3,35,7.1,35,11.9v4.4
	c-1.8-0.9-4.2-0.9-6,0v-4.4C29,7.1,24.4,3,19.2,3c-5.2,0-9,3.3-9.8,8.6l-0.2,1.8c-3.4,2-5.5,5.5-6.2,10.1L0,45.6l0,0
	C0,46.1,0,46.5,0,47c0,7.7,6.3,14,14,14c6.5,0,12-4.4,13.5-10.5c1.3,0.9,2.8,1.4,4.5,1.4s3.2-0.5,4.5-1.4C38,56.6,43.5,61,50,61
	c7.7,0,14-6.3,14-14C64,46.5,64,46.1,63.9,45.6z M19.2,7c3,0,5.8,2.4,5.8,4.9v3.3c-2.4-2.2-5.6-3.5-9-3.5c-0.9,0-1.7,0.1-2.5,0.2
	C14.3,7.5,17.8,7,19.2,7z M14,57C8.5,57,4,52.5,4,47s4.5-10,10-10s10,4.5,10,10S19.5,57,14,57z M24.3,37.6C21.8,34.8,18.1,33,14,33
	c-3.3,0-6.3,1.1-8.6,3L7,24c0.6-4,2.5-6.7,5.7-7.8c1-0.4,2.1-0.6,3.3-0.6c4.2,0,9,3.5,9,8L24.3,37.6z M29,22.7L29,22.7
	c0-1.7,1.4-3,3-3s3,1.4,3,3h0.1c0,0.4-0.1,0.7-0.1,1.1l0.6,12.9c-1.1-0.6-2.3-0.9-3.6-0.9c-1.3,0-2.5,0.3-3.6,0.9l0.6-13
	C29,23.3,29,23,29,22.7z M32,47.9c-2,0-3.7-1.6-4-3.6l0.1-1.3c0.4-1.8,2-3.2,3.9-3.2s3.5,1.4,3.9,3.2l0.1,1.3
	C35.7,46.3,34,47.9,32,47.9z M39,11.9C39,9.4,41.8,7,44.8,7c1.5,0,4.9,0.5,5.7,4.8c-4.3-0.8-8.6,0.6-11.5,3.3V11.9z M39.7,37.6
	L39,23.7c0-4.6,4.8-8.1,9-8.1c2.3,0,7.9,0.8,9,8.4L58.6,36c-2.4-1.9-5.4-3-8.6-3C45.9,33,42.2,34.8,39.7,37.6z M50,57
	c-5.5,0-10-4.5-10-10s4.5-10,10-10s10,4.5,10,10S55.5,57,50,57z"/>
</svg>
